<svg width="95" height="27" viewBox="0 0 95 27" fill="none" xmlns="http://www.w3.org/2000/svg">
<path d="M0.850586 14.1044V10.3544L15.8506 3.74929V8.06392L5.5807 12.1868L5.71919 11.9631V12.4957L5.5807 12.272L15.8506 16.3949V20.7095L0.850586 14.1044ZM19.8422 23V1.18182H28.578C30.1831 1.18182 31.5219 1.41974 32.5943 1.8956C33.6668 2.37145 34.4729 3.03196 35.0127 3.87713C35.5524 4.7152 35.8223 5.68111 35.8223 6.77486C35.8223 7.62713 35.6519 8.37642 35.311 9.02273C34.97 9.66193 34.5013 10.1875 33.9047 10.5994C33.3152 11.0043 32.6405 11.2919 31.8806 11.4624V11.6754C32.7115 11.7109 33.4892 11.9453 34.2137 12.3786C34.9452 12.8118 35.5382 13.419 35.9928 14.2003C36.4473 14.9744 36.6746 15.8977 36.6746 16.9702C36.6746 18.1278 36.3869 19.1612 35.8117 20.0703C35.2435 20.9723 34.4019 21.6861 33.2868 22.2116C32.1718 22.7372 30.7975 23 29.1639 23H19.8422ZM24.4551 19.2287H28.2158C29.5013 19.2287 30.4388 18.9837 31.0283 18.4936C31.6178 17.9964 31.9125 17.3359 31.9125 16.5121C31.9125 15.9084 31.7669 15.3757 31.4757 14.9141C31.1845 14.4524 30.7691 14.0902 30.2293 13.8274C29.6966 13.5646 29.061 13.4332 28.3223 13.4332H24.4551V19.2287ZM24.4551 10.3118H27.8749C28.507 10.3118 29.0681 10.2017 29.5581 9.98153C30.0553 9.75426 30.4459 9.43466 30.73 9.02273C31.0212 8.6108 31.1668 8.11719 31.1668 7.5419C31.1668 6.75355 30.8862 6.1179 30.3252 5.63494C29.7712 5.15199 28.9828 4.91051 27.9601 4.91051H24.4551V10.3118ZM42.8368 23H37.8937L45.4256 1.18182H51.3702L58.8915 23H53.9483L48.4831 6.16761H48.3127L42.8368 23ZM42.5279 14.424H54.204V18.0249H42.5279V14.424ZM76.6786 0.159089L69.6473 26.2812H65.7375L72.7688 0.159089H76.6786ZM94.1494 16.1499L79.1494 22.755V18.4403L89.4193 14.3175L89.2808 14.5412V14.0085L89.4193 14.2322L79.1494 10.1094V5.79474L94.1494 12.3999V16.1499Z" fill="#111827"/>
</svg>
